<svg width="147" height="128" viewBox="0 0 147 128" fill="none" xmlns="http://www.w3.org/2000/svg">
<path opacity="0.5" d="M45 81.5C45 83.6699 44 86.5 44 86.5C44 86.5 30.3565 92 23 92C10.8497 92 1 87.299 1 81.5C1 75.701 10.8497 71 23 71C35.1503 71 45 76 45 81.5Z" fill="#2A94E2"/>
<path opacity="0.5" d="M51 63.5C51 65.6699 52 68.5 52 68.5C52 68.5 66.6435 74 74 74C86.1503 74 96 69.299 96 63.5C96 57.701 86.1503 53 74 53C61.8497 53 51 58 51 63.5Z" fill="#2A94E2"/>
<path opacity="0.5" d="M102 45.5C102 47.6699 103 50.5 103 50.5C103 50.5 117.643 56 125 56C137.15 56 147 51.299 147 45.5C147 39.701 135.15 35 123 35C110.85 35 102 40 102 45.5Z" fill="#2A94E2"/>
<path d="M101.9 117.321V105.047C104.052 106.575 107.325 107.926 111.026 108.915C115.019 109.984 119.602 110.656 124 110.656C128.421 110.656 133.016 109.795 137.005 108.573C140.722 107.434 143.976 105.962 146.1 104.528V117.321C146.1 119.778 144.043 122.22 140.013 124.097C136.042 125.947 130.43 127.1 124 127.1C117.57 127.1 111.958 125.947 107.987 124.097C103.957 122.22 101.9 119.778 101.9 117.321ZM146.1 103.638L145.471 102.772C143.59 104.138 140.349 105.666 136.478 106.852C132.618 108.035 128.204 108.856 124 108.856C119.773 108.856 115.346 108.208 111.491 107.177C107.614 106.14 104.406 104.74 102.555 103.291L101.9 104.128V86.5497C104.033 88.0849 107.285 89.5992 110.99 90.7557C114.983 92.0019 119.579 92.8569 124 92.8569C128.412 92.8569 133.001 92.0744 136.99 90.9281C140.706 89.8604 143.967 88.4578 146.1 87.0274V103.638ZM146.1 69.028V86.1376L145.471 85.2719C143.6 86.6316 140.367 88.0848 136.493 89.1981C132.634 90.3072 128.213 91.0569 124 91.0569C119.796 91.0569 115.382 90.2409 111.527 89.0374C107.657 87.8296 104.427 86.2559 102.555 84.7912L101.9 85.6278V69.0486C104.041 70.5806 107.302 72.0253 111.005 73.1107C114.998 74.2809 119.589 75.0579 124 75.0579C128.418 75.0579 133.011 74.2229 137 73.0256C140.717 71.91 143.973 70.4604 146.1 69.028ZM102.555 67.2912L101.9 68.1278V51.0486C104.042 52.5803 107.303 54.02 111.006 55.1002C114.999 56.265 119.59 57.0364 124 57.0364C128.418 57.0364 133.01 56.207 136.999 55.0151C140.716 53.9047 143.972 52.4602 146.1 51.0279V68.1376L145.471 67.2719C143.593 68.6361 140.355 70.1392 136.483 71.3016C132.623 72.4601 128.207 73.2579 124 73.2579C119.786 73.2579 115.367 72.5133 111.512 71.3833C107.639 70.2484 104.418 68.749 102.555 67.2912ZM102.555 49.2912L101.9 50.1278V45.6794C101.9 43.2215 103.957 40.7802 107.987 38.9028C111.958 37.053 117.57 35.9 124 35.9C130.436 35.9 136.049 36.9994 140.018 38.8215C144.035 40.6659 146.1 43.1054 146.1 45.6794V50.1376L145.471 49.2719C143.594 50.6356 140.356 52.1334 136.484 53.2905C132.624 54.4437 128.207 55.2364 124 55.2364C119.785 55.2364 115.366 54.4969 111.51 53.3723C107.638 52.2426 104.417 50.7485 102.555 49.2912Z" stroke="black" stroke-width="1.8"/>
<path d="M50.9 117.207V104.047C53.0765 105.6 56.4072 107.142 60.2036 108.321C64.2863 109.589 68.9855 110.462 73.5 110.462C78.0213 110.462 82.7233 109.53 86.8019 108.235C90.6118 107.025 93.9381 105.478 96.1 104.026V117.207C96.1 119.692 93.996 122.163 89.8727 124.063C85.8116 125.934 80.0725 127.1 73.5 127.1C66.9275 127.1 61.1884 125.934 57.1273 124.063C53.004 122.163 50.9 119.692 50.9 117.207ZM96.1 103.139L95.4748 102.269C93.5439 103.657 90.2177 105.262 86.257 106.519C82.3055 107.774 77.7912 108.662 73.5 108.662C69.202 108.662 64.6848 107.828 60.7375 106.602C56.7765 105.372 53.4668 103.771 51.5509 102.288L50.9 103.129V85.5482C53.063 87.1074 56.3803 88.768 60.179 90.0689C64.2608 91.4668 68.9695 92.474 73.5 92.474C78.0217 92.474 82.7239 91.5391 86.8024 90.2407C90.6124 89.0279 93.9384 87.4786 96.1 86.0261V103.139ZM96.1 68.0262V85.1391L95.4748 84.2692C93.5435 85.6571 90.2171 87.2648 86.2564 88.5255C82.305 89.7834 77.7908 90.674 73.5 90.674C69.218 90.674 64.7104 89.7181 60.7621 88.366C56.8054 87.011 53.4815 85.2825 51.5509 83.7883L50.9 84.6292V68.545C53.0894 70.0936 56.4335 71.5241 60.2271 72.5898C64.3102 73.7369 69.0006 74.4858 73.5 74.4858C78.0221 74.4858 82.7245 73.5478 86.803 72.2465C90.613 71.0308 93.9387 69.4787 96.1 68.0262ZM51.5509 66.7883L50.9 67.6292V62.7929C50.9 60.3084 53.004 57.8373 57.1273 55.9372C61.1884 54.0658 66.9275 52.9 73.5 52.9C80.0725 52.9 85.8116 54.0658 89.8727 55.9372C93.996 57.8373 96.1 60.3084 96.1 62.7929V67.1391L95.4748 66.2692C93.5431 67.6574 90.2164 69.268 86.2559 70.5316C82.3044 71.7924 77.7904 72.6858 73.5 72.6858C69.1869 72.6858 64.6609 71.9657 60.714 70.8569C56.7483 69.7428 53.4529 68.2604 51.5509 66.7883Z" stroke="black" stroke-width="1.8"/>
<path d="M0.9 117.167V103.556C3.02124 105.117 6.26023 106.755 9.96494 108.033C13.9575 109.41 18.5633 110.394 23 110.394C27.4277 110.394 32.0268 109.482 36.0161 108.204C39.7319 107.014 42.9797 105.487 45.1 104.033V117.167C45.1 119.675 43.0329 122.153 39.0085 124.055C35.0391 125.931 29.4279 127.1 23 127.1C16.5721 127.1 10.9609 125.931 6.99151 124.055C2.96714 122.153 0.9 119.675 0.9 117.167ZM45.1 103.136L44.466 102.276C42.5811 103.665 39.3363 105.251 35.4671 106.49C31.6078 107.726 27.1973 108.594 23 108.594C18.8117 108.594 14.4079 107.661 10.5519 106.331C6.68677 104.998 3.44426 103.291 1.55951 101.795L0.9 102.626V85.5556C3.02268 87.1162 6.26306 88.7414 9.96759 90.0064C13.9603 91.3697 18.565 92.3397 23 92.3397C27.4241 92.3397 32.1449 91.4425 36.2557 90.1804C39.798 89.0929 42.9507 87.7148 45.1 86.3589V103.136ZM45.1 84.4573L44.966 84.2755C43.0903 85.658 39.7288 87.2312 35.7274 88.4597C31.7397 89.684 27.2009 90.5397 23 90.5397C18.81 90.5397 14.4051 89.6196 10.5492 88.303C6.68371 86.983 3.44269 85.2897 1.55951 83.7951L0.9 84.626V80.8327C0.9 78.3248 2.96714 75.8468 6.99151 73.945C10.9609 72.0693 16.5721 70.9 23 70.9C29.5469 70.9 35.1566 72.0155 39.0939 73.8616C43.0692 75.7254 45.1 78.1991 45.1 80.8327V84.4573Z" stroke="black" stroke-width="1.8"/>
<path d="M23 60L55 28H96L123 1M123 1V15M123 1H109" stroke="black" stroke-width="1.8"/>
</svg>
